<?xml version="1.0" encoding="UTF-8" standalone="no"?>
<svg width="81px" height="97px" viewBox="0 0 81 97" version="1.1" xmlns="http://www.w3.org/2000/svg" xmlns:xlink="http://www.w3.org/1999/xlink">
    <!-- Generator: Sketch 41.2 (35397) - http://www.bohemiancoding.com/sketch -->
    <title>Group 4</title>
    <desc>Created with Sketch.</desc>
    <defs>
        <rect id="path-1" x="1" y="44" width="54" height="53"></rect>
        <mask id="mask-2" maskContentUnits="userSpaceOnUse" maskUnits="objectBoundingBox" x="0" y="0" width="54" height="53" fill="white">
            <use xlink:href="#path-1"></use>
        </mask>
    </defs>
    <g id="Page-1" stroke="none" stroke-width="1" fill="none" fill-rule="evenodd">
        <g id="Group-4">
            <g id="noun_13272_cc-(1)">
                <g id="Group">
                    <path d="M47.349,22.374 L46.843,21.808 C32.398,21.463 28.209,31.286 26.971,37.254 L28.093,37.254 C28.682,34.513 29.969,30.993 32.799,28.068 C36.31,24.444 41.285,22.663 47.627,22.685 L47.349,22.374 Z" id="Shape"></path>
                    <polygon id="Shape" points="66.804 22.123 71.162 14.76 62.785 16.505 58.588 9.047 55.912 17.177 47.356 17.083 48.482 18.342 48.482 18.342 53.058 23.463 51.291 26.448 51.291 26.448 48.698 30.828 57.075 29.081 61.271 36.539 63.948 28.41 72.504 28.504"></polygon>
                    <path d="M71.158,21.697 L78.282,9.668 L64.597,12.52 L57.739,0.333 L53.368,13.615 L39.385,13.463 L43.759,18.355 C38.04,18.778 33.349,20.783 29.799,24.342 C25.734,28.416 24.076,33.611 23.392,37.253 L17.252,37.253 L18.861,44.232 C8.414,47.898 0.91,57.82 0.91,69.516 C0.91,84.327 12.916,96.333 27.725,96.333 C42.535,96.333 54.54,84.324 54.54,69.516 C54.54,57.821 47.035,47.897 36.588,44.233 L38.199,37.255 L31.729,37.255 C32.279,35.126 33.328,32.59 35.358,30.504 C38.116,27.671 42.15,26.247 47.314,26.235 L41.577,35.921 L55.265,33.067 L62.12,45.254 L66.494,31.972 L80.474,32.126 L71.158,21.697 Z M32.799,28.069 C29.968,30.993 28.681,34.513 28.093,37.255 L26.971,37.255 C28.21,31.287 32.397,21.464 46.843,21.809 L47.349,22.375 L47.627,22.687 C41.285,22.665 36.31,24.445 32.799,28.069 Z M63.948,28.41 L61.271,36.538 L57.075,29.08 L48.698,30.828 L51.291,26.448 L51.291,26.448 L53.058,23.463 L48.481,18.342 L48.481,18.342 L47.355,17.083 L55.913,17.175 L58.586,9.046 L62.783,16.504 L71.162,14.758 L66.802,22.12 L72.505,28.501 L63.948,28.41 Z" id="Shape" fill="#000000"></path>
                </g>
            </g>
            <g id="Group-2" transform="translate(8.000000, 51.000000)">
                <g id="camera_48px-(3)"></g>
            </g>
            <use id="Rectangle" stroke="#FFFFFF" mask="url(#mask-2)" stroke-width="2" fill="#FFFFFF" xlink:href="#path-1"></use>
            <path d="M32.8455,42.64925 C30.969,42.2385 29.0115,42 27,42 C20.52,42 14.5935,44.23925 9.936,47.97575 L19.8315,64.79 L19.98,64.525 L32.8455,42.64925 Z M52.758,60.55 C50.274,52.79875 44.253,46.611 36.5715,43.749 L26.6895,60.55 L52.758,60.55 Z M53.46,63.2 L33.237,63.2 L34.02,64.525 L46.8855,86.3875 C51.2865,81.6705 54,75.40325 54,68.5 C54,66.68475 53.811,64.90925 53.46,63.2 Z M7.1145,50.6125 C2.7135,55.3295 0,61.59675 0,68.5 C0,70.31525 0.189,72.09075 0.54,73.8 L20.763,73.8 L17.6445,68.5 L7.1145,50.6125 Z M1.242,76.45 C3.726,84.20125 9.747,90.389 17.4285,93.251 L27.3105,76.45 L1.242,76.45 Z M31.671,76.45 L21.141,94.35075 C23.031,94.7615 24.9885,95 27,95 C33.48,95 39.4065,92.76075 44.064,89.02425 L34.1685,72.21 L31.671,76.45 Z" id="Shape" fill="#000000"></path>
        </g>
    </g>
</svg>